<svg viewBox="0 0 660 180" xmlns="http://www.w3.org/2000/svg">
  <defs>
    <!-- Mask untuk membuat lubang di infinity symbol -->
    <mask id="infinityMask">
      <!-- White background untuk area yang visible -->
      <rect width="660" height="180" fill="white"/>
      <!-- Black ellipses untuk membuat lubang (holes) -->
      <ellipse cx="50" cy="40" rx="18" ry="22" fill="black"/>
      <ellipse cx="113" cy="40" rx="18" ry="22" fill="black"/>
    </mask>
  </defs>

  <!-- Infinity Symbol dengan mask untuk lubang -->
  <g mask="url(#infinityMask)">
    <path d="M123.268 79.6439C116.257 79.6439 108.603 76.731 100.508 70.9655C94.7421 66.8674 88.7154 61.3229 82.0861 54.0306C78.1888 58.4501 74.3117 62.3675 70.5751 65.642C65.352 70.2222 60.1289 73.7378 55.0665 76.0882C49.9841 78.4386 45.0221 79.6439 40.3615 79.6439C29.634 79.6439 19.5494 75.5659 11.996 68.1531C4.44258 60.7604 0.28418 50.8967 0.28418 40.4103C0.28418 37.3769 0.645779 34.3234 1.36898 31.3703C1.36898 31.3302 1.42925 31.1494 1.44933 31.0891C5.74835 13.7926 22.2413 1.17676 40.6226 1.17676C47.6337 1.17676 55.2875 4.08965 63.3833 9.85515C69.1488 13.9533 75.1755 19.4978 81.8048 26.7901C85.7021 22.3504 89.5792 18.4532 93.3158 15.1787C103.923 5.89764 113.987 1.17676 123.268 1.17676C145.527 1.17676 163.627 18.7746 163.627 40.4103C163.627 43.4839 163.245 46.5374 162.522 49.5307C158.203 66.9879 141.71 79.6439 123.288 79.6439H123.268ZM24.7926 19.1764C19.228 20 14.5674 22.1295 10.9313 25.5044C7.37555 28.8191 6.08986 32.2141 5.94924 32.5958C5.32649 35.127 5.02515 37.7787 5.02515 40.4103C5.02515 49.611 8.68133 58.2493 15.3107 64.7581C21.9802 71.2869 30.8594 74.8829 40.3414 74.8829C48.4975 74.8829 57.8589 70.4432 67.4212 62.0661C70.8765 59.0327 74.4724 55.4167 78.1085 51.3387L78.8317 50.515L73.0461 44.3277L72.5037 44.9705C68.7069 49.3499 65.111 53.0061 61.5552 56.1198C53.4996 63.171 46.4685 66.7469 40.6226 66.7469C25.7569 66.7469 13.6835 54.9346 13.6835 40.4103C13.6835 32.1337 17.9222 24.0982 24.8127 19.1563L24.7926 19.1764ZM94.1193 39.9885C99.8245 45.995 103.882 50.1133 106.193 52.2226C107.78 53.669 113.606 58.6711 121.942 61.8653C122.364 61.9255 122.846 61.9858 123.268 61.9858C135.502 61.9054 145.446 52.2427 145.446 40.4103C145.446 28.578 135.502 18.8349 123.268 18.8349C120.074 18.8349 114.389 20.4822 105.49 28.2967C101.833 31.4909 98.117 35.3279 94.1394 39.9885H94.1193ZM40.6226 18.855C28.3885 18.9353 18.4445 28.5981 18.4445 40.4304C18.4445 52.2628 28.3885 62.0059 40.6226 62.0059C43.8168 62.0059 49.5019 60.3586 58.4013 52.544C62.0776 49.3298 65.794 45.4928 69.7515 40.8523C64.0463 34.8457 59.9883 30.7275 57.6781 28.6182C56.0911 27.1718 50.2653 22.1696 41.9284 18.9755C41.5065 18.9152 41.0244 18.8751 40.6025 18.8751L40.6226 18.855ZM123.268 14.0939C138.134 14.0939 150.207 25.9062 150.207 40.4304C150.207 48.707 145.969 56.7426 139.078 61.6845C144.643 60.8608 149.303 58.7314 152.94 55.3565C156.515 52.0217 157.781 48.6468 157.922 48.2651C158.544 45.7339 158.846 43.1022 158.846 40.4505C158.846 21.4464 142.875 5.978 123.248 5.978C115.152 5.978 106.132 10.2971 96.4496 18.7947C92.9943 21.8281 89.3984 25.4441 85.7623 29.5423L85.019 30.3458L90.8247 36.5533L91.3872 35.9104C95.184 31.531 98.7799 27.8749 102.336 24.7611C110.391 17.7099 117.422 14.1341 123.268 14.1341V14.0939Z" fill="currentColor"/>
  </g>

  <!-- Text: CHAIN FUSION -->
  <g>
    <path d="M86.858 177.418C86.6973 177.418 86.5566 177.277 86.5566 177.117V102.045C86.5566 101.884 86.6973 101.743 86.858 101.743H178.403C178.564 101.743 178.704 101.884 178.704 102.045V125.83C178.704 125.99 178.564 126.131 178.403 126.131H116.409V134.689H171.071C171.231 134.689 171.372 134.83 171.372 134.99V156.947C171.372 157.108 171.231 157.249 171.071 157.249H116.409V177.117C116.409 177.277 116.268 177.418 116.107 177.418H86.8379H86.858Z" fill="currentColor"/>

    <path d="M238.187 179.146C218.139 179.106 203.755 174.847 195.458 166.51C189.552 160.564 186.559 152.408 186.599 142.263V101.924C186.599 101.764 186.74 101.623 186.9 101.623H216.17C216.331 101.623 216.471 101.764 216.471 101.924V140.415C216.351 152.749 226.837 154.597 238.187 154.758C249.537 154.597 260.004 152.749 259.843 140.415V101.924C259.843 101.764 259.984 101.623 260.144 101.623H289.474C289.635 101.623 289.775 101.764 289.775 101.924V142.263C289.816 152.408 286.843 160.564 280.916 166.51C272.62 174.847 258.256 179.106 238.187 179.146Z" fill="currentColor"/>

    <path d="M348.734 179.146C324.427 179.085 300.461 176.976 297.508 152.347C297.508 152.267 297.508 152.186 297.588 152.106C297.669 152.026 297.729 152.005 297.809 152.005H328.485C328.585 152.005 328.686 152.066 328.746 152.146C331.579 157.028 337.927 159.318 348.775 159.318C353.455 159.318 368.763 158.816 368.763 152.287C368.763 149.193 358.759 148.731 348.152 148.229C326.697 147.144 297.488 145.657 297.548 126.653C297.548 108.573 314.302 99.7744 348.795 99.7744C373.122 99.9351 397.108 102.125 400.021 126.633C400.021 126.714 400.021 126.794 399.941 126.874C399.881 126.935 399.8 126.975 399.72 126.975H369.044C368.944 126.975 368.843 126.914 368.783 126.814C365.187 120.466 356.187 119.642 348.775 119.642C341.362 119.642 328.786 120.546 328.786 126.673C328.786 129.707 338.328 130.149 349.397 130.671C370.852 131.756 400.062 133.242 400.001 152.307C400.001 170.367 383.247 179.146 348.755 179.146H348.734Z" fill="currentColor"/>

    <path d="M436.767 101.643H407.497C407.331 101.643 407.196 101.777 407.196 101.944V177.016C407.196 177.182 407.331 177.317 407.497 177.317H436.767C436.933 177.317 437.068 177.182 437.068 177.016V101.944C437.068 101.777 436.933 101.643 436.767 101.643Z" fill="currentColor"/>

    <path d="M496.651 179.146C476.602 179.106 462.238 174.867 453.942 166.531C448.015 160.564 445.042 152.388 445.082 142.223V136.759C445.042 126.574 448.015 118.378 453.942 112.411C462.339 103.974 476.301 99.8556 496.651 99.8154C530.842 99.8154 548.179 112.25 548.179 136.759V142.243C548.219 152.428 545.246 160.604 539.319 166.571C531.043 174.908 516.679 179.146 496.671 179.187L496.651 179.146ZM496.651 124.183C485.28 124.344 474.774 126.192 474.934 138.527V140.375C474.774 152.75 485.28 154.618 496.651 154.779C508.001 154.618 518.467 152.77 518.306 140.395V138.547C518.467 126.212 508.001 124.364 496.651 124.203V124.183Z" fill="currentColor"/>

    <path d="M626.122 177.317C626.122 177.317 625.961 177.277 625.901 177.217L586.085 131.937V177.016C586.085 177.177 585.944 177.317 585.784 177.317H556.514C556.354 177.317 556.213 177.177 556.213 177.016V101.944C556.213 101.783 556.354 101.643 556.514 101.643H596.792C596.792 101.643 596.973 101.683 597.013 101.743L629.437 140.876V101.924C629.437 101.763 629.577 101.623 629.738 101.623H659.068C659.229 101.623 659.369 101.763 659.369 101.924V176.996C659.369 177.157 659.229 177.297 659.068 177.297H626.102L626.122 177.317Z" fill="currentColor"/>

    <path d="M230.141 79.9463C210.092 79.9061 195.729 75.6472 187.432 67.3104C181.506 61.344 178.533 53.1678 178.573 43.0028V37.5387C178.472 13.1708 195.829 0.735837 230.141 0.595215C262.645 0.655481 279.941 11.845 281.548 33.8222C281.548 33.9026 281.528 33.9829 281.468 34.0432C281.408 34.1035 281.327 34.1436 281.247 34.1436H251.254C251.134 34.1436 251.013 34.0633 250.973 33.9427C248.04 26.0478 238.297 25.0233 230.141 25.0233C218.791 25.184 208.324 27.0322 208.485 39.3667V41.2149C208.324 53.5495 218.791 55.3977 230.141 55.5584C242.295 55.5584 248.723 52.7861 250.973 46.5987C251.013 46.4782 251.134 46.3978 251.254 46.3978H281.247C281.247 46.3978 281.408 46.438 281.468 46.4983C281.528 46.5586 281.548 46.6389 281.548 46.7193C279.941 68.7768 262.645 79.9463 230.141 79.9463Z" fill="currentColor"/>

    <path d="M363.188 78.0976C363.027 78.0976 362.887 77.957 362.887 77.7963V52.4441H319.515V77.7963C319.515 77.957 319.374 78.0976 319.213 78.0976H289.944C289.783 78.0976 289.643 77.957 289.643 77.7963V2.72418C289.643 2.56347 289.783 2.42285 289.944 2.42285H319.213C319.374 2.42285 319.515 2.56347 319.515 2.72418V28.0763H362.887V2.72418C362.887 2.56347 363.027 2.42285 363.188 2.42285H392.518C392.678 2.42285 392.819 2.56347 392.819 2.72418V77.7963C392.819 77.957 392.678 78.0976 392.518 78.0976H363.188Z" fill="currentColor"/>

    <path d="M477.152 78.2187C477.031 78.2187 476.931 78.1585 476.891 78.0379L471.045 65.3619H433.84L427.994 78.0379C427.954 78.1384 427.834 78.2187 427.733 78.2187H394.767C394.667 78.2187 394.566 78.1585 394.506 78.0781C394.446 77.9977 394.446 77.8772 394.506 77.7969L434.764 2.70466C434.764 2.70466 434.925 2.54395 435.025 2.54395H469.819C469.92 2.54395 470.02 2.60421 470.08 2.70466L510.359 77.7768C510.359 77.7768 510.399 77.9777 510.359 78.058C510.298 78.1384 510.198 78.1986 510.097 78.1986H477.132L477.152 78.2187ZM462.266 46.4582L452.442 25.2845L442.579 46.4582H462.266Z" fill="currentColor"/>

    <path d="M541.618 2.44385H512.349C512.182 2.44385 512.047 2.57876 512.047 2.74518V77.8173C512.047 77.9837 512.182 78.1186 512.349 78.1186H541.618C541.785 78.1186 541.92 77.9837 541.92 77.8173V2.74518C541.92 2.57876 541.785 2.44385 541.618 2.44385Z" fill="currentColor"/>

    <path d="M626.735 78.0981C626.735 78.0981 626.574 78.0579 626.514 77.9977L586.697 32.7174V77.7968C586.697 77.9575 586.557 78.0981 586.396 78.0981H557.127C556.966 78.0981 556.825 77.9575 556.825 77.7968V2.72467C556.825 2.56396 556.966 2.42334 557.127 2.42334H597.405C597.405 2.42334 597.586 2.46352 597.626 2.52378L630.049 41.6569V2.72467C630.049 2.56396 630.19 2.42334 630.35 2.42334H659.68C659.841 2.42334 659.982 2.56396 659.982 2.72467V77.7968C659.982 77.9575 659.841 78.0981 659.68 78.0981H626.714H626.735Z" fill="currentColor"/>
  </g>
</svg>
